<svg width="71" height="16" viewBox="0 0 71 16" fill="none" xmlns="http://www.w3.org/2000/svg">
<path fill-rule="evenodd" clip-rule="evenodd" d="M70.7071 7.29284L64.3431 0.928881C63.9526 0.538356 63.3195 0.538356 62.9289 0.928881C62.5384 1.31941 62.5384 1.95257 62.9289 2.34309L67.5858 6.99995H57H22L3.41421 6.99995L8.07106 2.3431C8.46159 1.95258 8.46159 1.31941 8.07106 0.928886C7.68054 0.538362 7.04737 0.538362 6.65685 0.928886L0.292889 7.29285C-0.0976334 7.68337 -0.0976333 8.31654 0.292889 8.70706L6.65685 15.071C7.04738 15.4615 7.68054 15.4615 8.07106 15.071C8.46159 14.6805 8.46159 14.0473 8.07106 13.6568L3.41421 8.99995L22 8.99995H57H67.5858L62.9289 13.6568C62.5384 14.0473 62.5384 14.6805 62.9289 15.071C63.3195 15.4615 63.9526 15.4615 64.3431 15.071L70.7071 8.70706C71.0976 8.31653 71.0976 7.68337 70.7071 7.29284Z" fill="#00B6EF"/>
</svg>
