<svg width="200" height="47" viewBox="0 0 200 47" fill="none" xmlns="http://www.w3.org/2000/svg">
    <path d="M78.5 28.7L75.8 22L73.5 15.3L71.2 22.1L68.6 28.8H65.1L57.1 7.4H61.7L66.8 22.8L72.1 7.4H74.8L80.3 22.8L85.3 7.4H89.9L82 28.7H78.5Z" fill="#2A4E7E"/>
    <path d="M104.7 13.2V28.7H101.1L100.9 26.4C100 28.3 97.5 29.1 95.8 29.1C91.2 29.1 87.9 26.3 87.9 20.8C87.9 15.5 91.4 12.7 95.9 12.7C98 12.7 100 13.6 100.9 15.2L101 13.1H104.7V13.2ZM91.7 20.9C91.7 23.9 93.7 25.6 96.3 25.6C99.3 25.6 100.8 23.2 100.8 20.9C100.8 18.6 99.3 16.2 96.3 16.2C93.8 16.2 91.7 18 91.7 20.9Z" fill="#2A4E7E"/>
    <path d="M113.6 35H109.5L112.3 28.5L106.3 13.8H110.6L112.9 20.3L114.3 24.5L115.8 20.4L118.5 13.9H122.6L113.6 35Z" fill="#2A4E7E"/>
    <path d="M148.9 13.5C148.9 15.1 148.1 16.7 146.1 17.6C148.6 18.4 149.6 21 149.6 22.4C149.6 27.2 146 28.7 141.5 28.7H131.2V7.3H141.5C145.8 7.3 148.9 9.2 148.9 13.5ZM141.5 15.9C144.1 15.9 144.9 14.8 144.9 13.6C144.9 12.6 144.1 11 141.5 11H135.3V15.9H141.5V15.9ZM141.5 25C143.2 25 145.5 24.5 145.5 22.4C145.5 20.5 143.1 19.5 141.5 19.5H135.3V25H141.5Z" fill="#2A4E7E"/>
    <path d="M178.2 28.7C173.9 28.7 170.4 26.1 170.4 20.9C170.4 15.7 174 13.1 178.2 13.1C180.3 13.1 181.9 13.7 183.5 15.3L181.2 17.7C180.3 16.9 179.3 16.5 178.2 16.5C175.8 16.5 174 18.3 174 20.9C174 23.7 175.9 25.2 178.2 25.2C179.4 25.2 180.5 24.9 181.4 24L183.8 26.4C182.2 28.1 180.4 28.7 178.2 28.7Z" fill="#2A4E7E"/>
    <path d="M189.7 20L194.8 13.9H199.2L199.1 14.4L193 21L200 28.5V28.8H195.5L189.6 22.2V28.8H185.9V13.2H189.6V20H189.7Z" fill="#2A4E7E"/>
    <path d="M168.1 13.2V28.7H164.5L164.3 26.4C163.4 28.3 160.9 29.1 159.2 29.1C154.6 29.1 151.3 26.3 151.3 20.8C151.3 15.5 154.8 12.7 159.3 12.7C161.4 12.7 163.4 13.6 164.3 15.2L164.4 13.1H168.1V13.2ZM155.1 20.9C155.1 23.9 157.1 25.6 159.7 25.6C162.7 25.6 164.2 23.2 164.2 20.9C164.2 18.6 162.7 16.2 159.7 16.2C157.1 16.2 155.1 18 155.1 20.9Z" fill="#2A4E7E"/>
    <path d="M44.1 9L40.1 10.1L36.1 18.3L31.9 11.3C31 9.9 30.5 9.3 28.8 9.8C27.4 10.2 26.5 11.3 25.8 12.3L20.2 22.3L17.3 15.7C17 15.1 15.7 12.9 13 13.7L8.79999 15C9.59999 16.7 15.7 31.3 15.7 31.3C16.4 32.4 18.4 32.3 18.9 31.3L26.4 17L32.1 27.1C32.9 28.7 35 28 35.5 27L44.1 9Z" fill="#2A4E7E"/>
    <path d="M26.7 8.5C36.4 2.2 45.7 -0.699999 49.9 2C53.4 4.3 52.4 10.3 47.7 17.5L46.6 15.7C50 10 50.6 5.4 47.7 3.4C43 0.400002 31 5.2 20.3 14.3C19.7 14.8 18.7 15.7 18.7 15.7C22.3 11.1 26.8 7.4 26.7 7.4V8.5Z" fill="#2A4E7E"/>
    <path d="M0.799989 44.3C-1.80001 40 2.49999 31 10.5 22.3L11.1 23.7C5.89999 30.2 3.39999 36.5 5.59999 39.7C9.09999 44.8 22.6 40 35.1 29C39 25.6 42.2 22.1 44.5 18.8C44.5 18.8 41.3 26.4 37.5 31.2L37.4 29.4C37.2 29.6 35.3 31.6 35.1 31.7C20.3 44.8 4.49999 50.4 0.799989 44.3Z" fill="#42A4DC"/>
</svg>
