<svg width="267" height="32" viewBox="0 0 267 32" fill="none" xmlns="http://www.w3.org/2000/svg">
<path d="M145.941 19.4824V4.7373H147.071V19.4824H145.941Z" fill="#43A4DC"/>
<path d="M151.118 9.06665V10.9176C151.933 9.4745 153.376 8.90979 154.82 8.87842C157.612 8.87842 159.525 10.5725 159.525 13.4588V19.451H158.49V13.4902C158.49 11.1372 157.047 9.88234 154.788 9.88234C152.655 9.91371 151.149 11.5137 151.149 13.6784V19.4823H150.114V9.06665H151.118Z" fill="#43A4DC"/>
<path d="M164.169 5.92944V9.0667H167.714V9.94513H164.169V16.2824C164.169 17.6941 164.451 18.6981 166.082 18.6981C166.584 18.6981 167.149 18.5412 167.682 18.2902L168.027 19.1373C167.369 19.451 166.71 19.6706 166.082 19.6706C163.886 19.6706 163.165 18.353 163.165 16.3138V9.94513H160.969V9.0667H163.165V6.02356L164.169 5.92944Z" fill="#43A4DC"/>
<path d="M169.471 14.2746C169.471 11.1687 171.824 8.90991 174.741 8.90991C177.659 8.90991 180.294 10.6981 179.886 14.7766H170.506C170.725 17.2236 172.576 18.6354 174.741 18.6354C176.122 18.6354 177.722 18.1021 178.475 17.0668L179.196 17.6629C178.192 18.9805 176.373 19.6707 174.71 19.6707C171.855 19.608 169.471 17.5687 169.471 14.2746ZM178.976 13.8668C178.945 11.2942 177.282 9.85109 174.773 9.85109C172.639 9.85109 170.757 11.2942 170.537 13.8668H178.976Z" fill="#43A4DC"/>
<path d="M183.557 9.0668L183.588 10.9178C184.247 9.50602 185.722 8.97268 187.039 8.97268C187.824 8.94131 188.576 9.16092 189.267 9.56876L188.796 10.4158C188.263 10.0707 187.635 9.94523 187.039 9.94523C185.094 9.9766 183.62 11.5139 183.62 13.4276V19.4825H182.584V9.0668H183.557Z" fill="#43A4DC"/>
<path d="M191.839 9.06665V10.9176C192.655 9.4745 194.098 8.90979 195.541 8.87842C198.333 8.87842 200.247 10.5725 200.247 13.4588V19.451H199.212V13.4902C199.212 11.1372 197.769 9.88234 195.51 9.88234C193.377 9.91371 191.871 11.5137 191.871 13.6784V19.4823H190.835V9.06665H191.839Z" fill="#43A4DC"/>
<path d="M212.953 9.06677C212.953 12.5491 212.953 16.0001 212.953 19.4825H211.918V17.2864C210.914 18.9178 209.345 19.6707 207.651 19.6707C204.733 19.6707 202.38 17.4746 202.38 14.306C202.38 11.1374 204.765 8.97266 207.651 8.97266C209.345 8.97266 211.039 9.75697 211.918 11.3883V9.12952H212.953V9.06677ZM203.416 14.2746C203.416 16.8785 205.298 18.6354 207.682 18.6354C213.486 18.6354 213.486 9.94521 207.682 9.94521C205.298 9.94521 203.416 11.6707 203.416 14.2746Z" fill="#43A4DC"/>
<path d="M217.69 5.92944V9.0667H221.235V9.94513H217.69V16.2824C217.69 17.6941 217.973 18.6981 219.604 18.6981C220.106 18.6981 220.671 18.5412 221.204 18.2902L221.549 19.1373C220.89 19.451 220.231 19.6706 219.604 19.6706C217.408 19.6706 216.686 18.353 216.686 16.3138V9.94513H214.49V9.0667H216.686V6.02356L217.69 5.92944Z" fill="#43A4DC"/>
<path d="M224.969 5.67851C224.969 6.77655 223.306 6.77655 223.306 5.67851C223.306 4.58047 224.969 4.58047 224.969 5.67851ZM223.62 9.03537V19.4824H224.655V9.03537H223.62Z" fill="#43A4DC"/>
<path d="M227.322 14.306C227.322 11.0119 229.674 8.90991 232.592 8.90991C235.51 8.90991 237.863 11.0119 237.863 14.306C237.863 17.6001 235.51 19.6393 232.592 19.6393C229.674 19.6393 227.322 17.6001 227.322 14.306ZM236.89 14.306C236.89 11.608 234.976 9.85109 232.623 9.85109C230.271 9.85109 228.357 11.608 228.357 14.306C228.357 17.004 230.271 18.6354 232.623 18.6354C234.976 18.6354 236.89 17.004 236.89 14.306Z" fill="#43A4DC"/>
<path d="M241.282 9.06665V10.9176C242.098 9.4745 243.541 8.90979 244.984 8.87842C247.776 8.87842 249.69 10.5725 249.69 13.4588V19.451H248.655V13.4902C248.655 11.1372 247.212 9.88234 244.953 9.88234C242.82 9.91371 241.314 11.5137 241.314 13.6784V19.4823H240.278V9.06665H241.282Z" fill="#43A4DC"/>
<path d="M262.396 9.06677C262.396 12.5491 262.396 16.0001 262.396 19.4825H261.361V17.2864C260.357 18.9178 258.788 19.6707 257.094 19.6707C254.176 19.6707 251.823 17.4746 251.823 14.306C251.823 11.1374 254.208 8.97266 257.094 8.97266C258.788 8.97266 260.482 9.75697 261.361 11.3883V9.12952H262.396V9.06677ZM252.859 14.2746C252.859 16.8785 254.741 18.6354 257.125 18.6354C262.929 18.6354 262.929 9.94521 257.125 9.94521C254.741 9.94521 252.859 11.6707 252.859 14.2746Z" fill="#43A4DC"/>
<path d="M266.224 4.7373V19.4824H265.188V4.7373H266.224Z" fill="#43A4DC"/>
<path d="M55.7451 19.3255L53.8628 14.651L52.2627 9.94515L50.6628 14.6824L48.8118 19.3255H46.3647L40.7804 4.42358H43.9804L47.5569 15.1844L51.2588 4.42358H53.1412L56.9373 15.1844L60.4196 4.42358H63.6196L58.1608 19.3255H55.7451Z" fill="#2A4E7F"/>
<path d="M74.0353 8.47059V19.2941H71.4942L71.3687 17.7255C70.7412 19.0118 69.0157 19.6392 67.7922 19.6392C64.5922 19.6392 62.2393 17.6627 62.2393 13.8667C62.2393 10.1647 64.6863 8.18823 67.8549 8.18823C69.2981 8.18823 70.7412 8.84706 71.3373 9.9451L71.4314 8.43921H74.0353V8.47059ZM64.9373 13.898C64.9373 15.9686 66.3804 17.1922 68.1373 17.1922C70.2393 17.1922 71.3059 15.5294 71.3059 13.898C71.3059 12.2667 70.2393 10.6353 68.1373 10.6353C66.3804 10.6039 64.9373 11.8274 64.9373 13.898Z" fill="#2A4E7F"/>
<path d="M80.1843 23.7176H77.3607L79.3058 19.2L75.1333 8.94116H78.1451L79.7451 13.4274L80.749 16.3765L81.8156 13.4902L83.7294 8.94116H86.5843L80.1843 23.7176Z" fill="#2A4E7F"/>
<path d="M104.843 8.753C104.843 9.91378 104.278 11.0118 102.898 11.6393C104.655 12.1726 105.314 14.0236 105.314 14.9648C105.314 18.2903 102.804 19.3569 99.6667 19.3569H92.5138V4.42358H99.6667C102.616 4.42358 104.843 5.74123 104.843 8.753ZM99.6667 10.4157C101.455 10.4157 102.02 9.6628 102.02 8.81574C102.02 8.12555 101.455 6.99613 99.6667 6.99613H95.3059V10.4157H99.6667ZM99.6667 16.7216C100.828 16.7216 102.49 16.3452 102.49 14.9334C102.49 13.5844 100.828 12.8942 99.6667 12.8942H95.3059V16.7216H99.6667Z" fill="#2A4E7F"/>
<path d="M125.235 19.3256C122.255 19.3256 119.776 17.5374 119.776 13.8982C119.776 10.2589 122.255 8.4707 125.235 8.4707C126.678 8.4707 127.808 8.87855 128.937 9.97659L127.337 11.6707C126.741 11.1374 125.988 10.855 125.267 10.855C123.573 10.855 122.318 12.1099 122.318 13.8982C122.318 15.8433 123.635 16.9099 125.235 16.9099C126.051 16.9099 126.867 16.6903 127.494 16.0629L129.188 17.7256C127.996 18.8864 126.773 19.3256 125.235 19.3256Z" fill="#2A4E7F"/>
<path d="M133.235 13.2393L136.812 8.97266H139.918L139.855 9.28639L135.588 13.9295L140.451 19.1374V19.3256H137.345L133.267 14.7138V19.3256H130.694V8.53345H133.267V13.2393H133.235Z" fill="#2A4E7F"/>
<path d="M118.208 8.47059V19.2941H115.667L115.541 17.7255C114.914 19.0118 113.188 19.6392 111.965 19.6392C108.765 19.6392 106.412 17.6627 106.412 13.8667C106.412 10.1647 108.859 8.18823 112.027 8.18823C113.471 8.18823 114.914 8.84706 115.51 9.9451L115.604 8.43921H118.208V8.47059ZM109.141 13.898C109.141 15.9686 110.584 17.1922 112.341 17.1922C114.443 17.1922 115.51 15.5294 115.51 13.898C115.51 12.2667 114.443 10.6353 112.341 10.6353C110.553 10.6039 109.141 11.8274 109.141 13.898Z" fill="#2A4E7F"/>
<path d="M31.7138 5.61572L28.9216 6.40004L26.0981 12.1098L23.1491 7.2471C22.5216 6.24317 22.2079 5.8667 20.9843 6.24317C20.0118 6.52553 19.353 7.2471 18.9138 8.00004L15.0236 14.9961L12.9843 10.353C12.7961 9.91376 11.8863 8.37651 10.004 8.94121L7.05493 9.81964C7.61964 11.0118 11.8236 21.2079 11.8236 21.2079C12.3255 21.9608 13.6745 21.8981 14.051 21.2079L19.3843 11.1687L23.3687 18.2275C23.902 19.3569 25.4079 18.8549 25.753 18.1961L31.7138 5.61572Z" fill="#2A4E7F"/>
<path d="M19.5726 5.2706C26.3491 0.847066 32.8432 -1.19215 35.7295 0.721576C38.2079 2.35295 37.5177 6.49412 34.2236 11.5451L33.4393 10.2902C35.7922 6.30589 36.2 3.07452 34.1922 1.7255C30.9922 -0.439209 22.6471 2.91765 15.1491 9.25491C14.7726 9.56863 14.0197 10.2275 14.0197 10.2275C16.5295 6.99609 19.6353 4.45491 19.604 4.42354L19.5726 5.2706Z" fill="#2A4E7F"/>
<path d="M1.53336 30.1804C-0.317625 27.1687 2.72551 20.9255 8.30983 14.8079L8.71767 15.7804C5.10983 20.3295 3.38434 24.7216 4.89022 26.9491C7.3059 30.5255 16.7177 27.2001 25.4706 19.4824C28.1686 17.0981 30.3961 14.651 32.0588 12.3608C32.0588 12.3608 29.8628 17.6628 27.1647 21.0197L27.0706 19.7334C26.9137 19.8589 25.6275 21.2393 25.4706 21.3648C15.149 30.5255 4.13728 34.4471 1.53336 30.1804Z" fill="#43A4DC"/>
</svg>
